<?xml version="1.0" encoding="UTF-8" standalone="no"?>
<!-- Created with Inkscape (http://www.inkscape.org/) -->

<svg
        xmlns:dc="http://purl.org/dc/elements/1.1/"
        xmlns:cc="http://creativecommons.org/ns#"
        xmlns:rdf="http://www.w3.org/1999/02/22-rdf-syntax-ns#"
        xmlns="http://www.w3.org/2000/svg"
        xmlns:xlink="http://www.w3.org/1999/xlink"
        xmlns:sodipodi="http://sodipodi.sourceforge.net/DTD/sodipodi-0.dtd"
        xmlns:inkscape="http://www.inkscape.org/namespaces/inkscape"
        inkscape:export-ydpi="90"
        inkscape:export-xdpi="90"
        width="128"
        height="128"
        id="svg4562"
        version="1.1"
        inkscape:version="0.48.2 r9819"
        sodipodi:docname="icon_fraise.svg">
  <sodipodi:namedview
     inkscape:document-units="px"
     id="base"
     pagecolor="#ffffff"
     bordercolor="#666666"
     borderopacity="1.0"
     inkscape:pageopacity="0.0"
     inkscape:pageshadow="2"
     inkscape:zoom="1"
     inkscape:cx="-37.199916"
     inkscape:cy="194.34872"
     inkscape:current-layer="svg4562"
     showgrid="false"
     units="px"
     inkscape:window-width="1436"
     inkscape:window-height="856"
     inkscape:window-x="7"
     inkscape:window-y="0"
     inkscape:window-maximized="0"
     showguides="false"
     inkscape:guide-bbox="true"
     inkscape:object-paths="false"
     inkscape:snap-intersection-paths="true"
     inkscape:object-nodes="true"
     inkscape:snap-smooth-nodes="true"
     inkscape:snap-grids="true"
     inkscape:snap-object-midpoints="true"
     inkscape:snap-center="true"
     inkscape:snap-page="true"
     inkscape:snap-nodes="true"
     inkscape:snap-bbox="true"
     inkscape:snap-bbox-midpoints="true"
     inkscape:snap-global="true"
     showborder="true">
    <inkscape:grid
       type="xygrid"
       id="grid5115"
       empspacing="4"
       visible="true"
       enabled="true"
       snapvisiblegridlinesonly="true"
       spacingx="4px"
       spacingy="4px" />
    <sodipodi:guide
       orientation="1,0"
       position="16,16"
       id="guide5117" />
    <sodipodi:guide
       orientation="0,1"
       position="16,16"
       id="guide5119" />
    <sodipodi:guide
       orientation="0,1"
       position="112,112"
       id="guide5121" />
    <sodipodi:guide
       orientation="1,0"
       position="112,112"
       id="guide5123" />
    <sodipodi:guide
       orientation="1,0"
       position="64,64"
       id="guide5535" />
    <sodipodi:guide
       orientation="0,1"
       position="64,64"
       id="guide5537" />
  </sodipodi:namedview>
  <defs
     id="defs3">
    <linearGradient
       id="linearGradient7090">
      <stop
         style="stop-color:#ffffff;stop-opacity:0.19607843;"
         offset="0"
         id="stop7092" />
      <stop
         style="stop-color:#ffffff;stop-opacity:0.03921569;"
         offset="1"
         id="stop7094" />
    </linearGradient>
    <linearGradient
       inkscape:collect="always"
       xlink:href="#linearGradient7090"
       id="linearGradient7118"
       gradientUnits="userSpaceOnUse"
       gradientTransform="matrix(0.734375,0,0,0.73437502,17,262.53367)"
       x1="63.816387"
       y1="924.36218"
       x2="64"
       y2="1054.1232" />
    <linearGradient
       inkscape:collect="always"
       xlink:href="#linearGradient7090"
       id="linearGradient7122"
       gradientUnits="userSpaceOnUse"
       gradientTransform="matrix(0.875,0,0,0.87500002,8,123.54526)"
       x1="63.816387"
       y1="924.36218"
       x2="64"
       y2="1054.1232" />
    <filter
       inkscape:collect="always"
       id="filter7268"
       x="-0.15064456"
       width="1.3012891"
       y="-0.15667373"
       height="1.3133475">
      <feGaussianBlur
         inkscape:collect="always"
         stdDeviation="6.6951449"
         id="feGaussianBlur7270" />
    </filter>
  </defs>
  <metadata
     id="metadata4">
    <rdf:RDF>
      <cc:Work
         rdf:about="">
        <dc:format>image/svg+xml</dc:format>
        <dc:type
           rdf:resource="http://purl.org/dc/dcmitype/StillImage" />
        <dc:title />
      </cc:Work>
    </rdf:RDF>
  </metadata>
  <g
     inkscape:label="Layer 1"
     inkscape:groupmode="layer"
     id="layer1"
     transform="translate(0,-924.36218)">
    <rect
       rx="56"
       y="932.36218"
       x="8"
       height="112"
       width="112"
       id="rect7048"
       style="fill:#7e99ba;fill-opacity:1;stroke:none" />
    <rect
       style="fill:url(#linearGradient7122);fill-opacity:1;stroke:none"
       id="rect7120"
       width="112"
       height="112"
       x="8"
       y="932.36218"
       rx="56" />
    <rect
       rx="47"
       y="941.36218"
       x="17"
       height="94"
       width="94"
       id="rect7116"
       style="fill:url(#linearGradient7118);fill-opacity:1;stroke:none" />
    <path
       id="path7058"
       d="m 117.33199,944.08252 c -0.1763,0.34538 -0.37452,0.68945 -0.5729,1.02503 -0.39677,0.67115 -0.84867,1.30833 -1.32629,1.94346 -0.47775,0.63515 -0.98315,1.26605 -1.54016,1.86586 -0.55703,0.5998 -1.1468,1.15823 -1.78083,1.72374 -0.63405,0.56551 -1.32014,1.14249 -2.02805,1.67511 -0.70802,0.53258 -1.45938,1.0338 -2.23753,1.53515 -0.77815,0.50136 -1.57645,0.98762 -2.42023,1.45974 -0.84387,0.4721 -1.72966,0.93699 -2.63407,1.38211 -0.90442,0.44513 -1.824,0.85702 -2.78341,1.2777 -0.959297,0.42056 -1.960179,0.83448 -2.968267,1.23345 -1.007968,0.39887 -2.038392,0.78214 -3.088612,1.16237 -1.050095,0.38015 -2.094953,0.75998 -3.17995,1.12467 -1.085108,0.36458 -2.189795,0.73237 -3.302466,1.08479 -1.112667,0.35231 -2.230201,0.70566 -3.362634,1.04923 -1.132541,0.34345 -2.278281,0.67548 -3.422799,1.0137 -1.14449,0.33812 -2.305447,0.6751 -3.453973,1.01153 -1.1485,0.33634 -2.309454,0.6733 -3.453978,1.01154 -1.144478,0.33812 -2.290286,0.67012 -3.422799,1.01369 -1.132471,0.34347 -2.249995,0.69683 -3.362634,1.04925 -1.112583,0.35232 -2.217395,0.72007 -3.302466,1.08478 -1.085029,0.3646 -2.127668,0.71321 -3.17777,1.0935 -1.05005,0.38014 -2.082731,0.79455 -3.090776,1.19355 -1.008006,0.39889 -2.006782,0.78157 -2.966097,1.20227 -0.959315,0.4207 -1.881211,0.86371 -2.785595,1.30888 -0.904323,0.44502 -1.790316,0.90998 -2.634069,1.38211 -0.843737,0.47203 -1.642168,0.95833 -2.420231,1.45974 -0.778017,0.50128 -1.529631,1.00252 -2.237533,1.53515 -0.707849,0.53252 -1.391904,1.07839 -2.02586,1.64395 -0.633907,0.56543 -1.22607,1.15504 -1.783008,1.75489 -0.556883,0.59973 -1.062557,1.23068 -1.540158,1.86585 -0.477577,0.63517 -0.929626,1.2723 -1.326304,1.94347 -0.396658,0.67107 -0.739461,1.38022 -1.054455,2.08779 l -7.577998,16.98143 c -0.314935,0.7075 -0.576137,1.4236 -0.809442,2.1677 -0.233198,0.7437 -0.414223,1.4986 -0.566542,2.2784 -0.152356,0.7799 -0.281941,1.5719 -0.354909,2.3873 -0.07296,0.8152 -0.115984,1.6487 -0.112081,2.4984 0.0039,0.8496 0.05293,1.7265 0.13084,2.6091 0.0779,0.8825 0.196581,1.7732 0.344653,2.687 -0.778067,0.5014 -1.531891,1.0339 -2.239722,1.5663 -0.707895,0.5326 -1.360792,1.0807 -1.994706,1.6461 -0.633917,0.5654 -1.2551,1.1218 -1.811999,1.7216 -0.556913,0.5998 -1.062582,1.2307 -1.54014,1.8658 -0.477599,0.6352 -0.929619,1.2723 -1.326271,1.9434 -0.396742,0.6712 -0.739492,1.3802 -1.05447,2.0878 l -7.065288,15.9209 c 0.176277,-0.3453 0.374566,-0.6895 0.572869,-1.025 0.396638,-0.6711 0.848719,-1.3083 1.326317,-1.9435 0.477569,-0.635 0.983201,-1.2658 1.540151,-1.8658 0.556928,-0.5997 1.14687,-1.1581 1.780823,-1.7237 0.633914,-0.5654 1.320139,-1.1425 2.028069,-1.6752 0.707845,-0.5325 1.45942,-1.0337 2.237524,-1.5351 0.778039,-0.5014 1.57642,-0.9877 2.420183,-1.4597 0.843821,-0.4722 1.729731,-0.937 2.634132,-1.3823 0.904292,-0.4449 1.824063,-0.857 2.783416,-1.2776 0.959226,-0.4207 1.960164,-0.8344 2.968259,-1.2335 1.007955,-0.3987 2.038479,-0.7821 3.088581,-1.1623 1.05005,-0.3801 2.094877,-0.76 3.179957,-1.1246 1.085038,-0.3647 2.189866,-0.7325 3.302462,-1.0848 1.112621,-0.3524 2.230118,-0.7057 3.362618,-1.0493 1.132487,-0.3434 2.278314,-0.6754 3.422822,-1.0137 1.144456,-0.3382 2.30542,-0.6749 3.453949,-1.0115 1.148536,-0.3364 2.3095,-0.6734 3.453997,-1.0115 1.144466,-0.3382 2.290262,-0.6701 3.42282,-1.0138 1.132449,-0.3433 2.249958,-0.6968 3.362621,-1.0491 1.112641,-0.3524 2.217352,-0.7202 3.302461,-1.0848 1.085068,-0.3647 2.127636,-0.7133 3.177768,-1.0937 1.05008,-0.3801 2.082705,-0.7946 3.090771,-1.1935 1.008065,-0.3989 2.006722,-0.7815 2.966125,-1.2022 0.959316,-0.4206 1.881207,-0.8639 2.785551,-1.3088 0.904541,-0.4453 1.790194,-0.9101 2.634077,-1.3822 0.843767,-0.4721 1.642179,-0.9583 2.42022,-1.4597 0.778145,-0.5013 1.529639,-1.0025 2.237543,-1.5352 0.708012,-0.5325 1.391816,-1.0784 2.025862,-1.6439 0.634043,-0.5655 1.225987,-1.1551 1.783007,-1.7549 0.557018,-0.5998 1.062539,-1.2307 1.54016,-1.8658 0.477734,-0.6351 0.929531,-1.2723 1.326289,-1.9435 0.39676,-0.6711 0.739356,-1.3802 1.05446,-2.0878 l 7.578032,-16.98152 c 0.315104,-0.70752 0.576082,-1.42365 0.809417,-2.16756 0.233345,-0.74392 0.414206,-1.49861 0.566576,-2.27854 0.15293,-0.77988 0.28158,-1.57206 0.3549,-2.3873 0.0733,-0.81523 0.11551,-1.64875 0.11205,-2.49826 -0.004,-0.84955 -0.053,-1.72676 -0.13082,-2.60924 -0.0779,-0.88246 -0.19661,-1.77313 -0.34466,-2.68684 0.77815,-0.50136 1.53181,-1.03374 2.23971,-1.56633 0.70802,-0.5326 1.36065,-1.0806 1.99469,-1.64612 0.63404,-0.5655 1.25498,-1.12173 1.812,-1.72153 0.55701,-0.59981 1.06254,-1.23075 1.54016,-1.86587 0.47772,-0.63513 0.92952,-1.27232 1.3263,-1.94347 0.39675,-0.67114 0.73936,-1.38025 1.05446,-2.08778 l 7.06529,-15.92094 z"
       style="fill:#104a97;fill-opacity:0.47826089;stroke:none;filter:url(#filter7268)"
       inkscape:connector-curvature="0" />
    <path
       inkscape:connector-curvature="0"
       style="fill:#bf443b;fill-opacity:1;stroke:none"
       d="m 117.33199,937.08255 c -0.1763,0.34538 -0.37452,0.68945 -0.5729,1.02503 -0.39677,0.67115 -0.84867,1.30833 -1.32629,1.94346 -0.47775,0.63515 -0.98315,1.26605 -1.54016,1.86586 -0.55703,0.5998 -1.1468,1.15823 -1.78083,1.72374 -0.63405,0.56551 -1.32014,1.14249 -2.02805,1.67511 -0.70802,0.53258 -1.45938,1.0338 -2.23753,1.53515 -0.77815,0.50136 -1.57645,0.98762 -2.42023,1.45974 -0.84387,0.4721 -1.72966,0.93699 -2.63407,1.38211 -0.90442,0.44513 -1.824,0.85702 -2.78341,1.2777 -0.959297,0.42056 -1.960179,0.83448 -2.968267,1.23345 -1.007968,0.39887 -2.038392,0.78214 -3.088612,1.16237 -1.050095,0.38015 -2.094953,0.75998 -3.17995,1.12467 -1.085108,0.36458 -2.189795,0.73237 -3.302466,1.08479 -1.112667,0.35231 -2.230201,0.70566 -3.362634,1.04923 -1.132541,0.34345 -2.278281,0.67548 -3.422799,1.0137 -1.14449,0.33812 -2.305447,0.6751 -3.453973,1.01153 -1.1485,0.33634 -2.309454,0.6733 -3.453978,1.01154 -1.144478,0.33812 -2.290286,0.67012 -3.422799,1.01369 -1.132471,0.34347 -2.249995,0.69683 -3.362634,1.04925 -1.112583,0.35232 -2.217395,0.72007 -3.302466,1.08478 -1.085029,0.3646 -2.127668,0.71321 -3.17777,1.0935 -1.05005,0.38014 -2.082731,0.79455 -3.090776,1.19355 -1.008006,0.39889 -2.006782,0.78157 -2.966097,1.20227 -0.959315,0.4207 -1.881211,0.86371 -2.785595,1.30888 -0.904323,0.44502 -1.790316,0.90998 -2.634069,1.38211 -0.843737,0.47203 -1.642168,0.95833 -2.420231,1.45974 -0.778017,0.50128 -1.529631,1.00252 -2.237533,1.53515 -0.707849,0.53252 -1.391904,1.07839 -2.02586,1.64395 -0.633907,0.56543 -1.22607,1.15504 -1.783008,1.75489 -0.556883,0.59973 -1.062557,1.23068 -1.540158,1.86585 -0.477577,0.63517 -0.929626,1.2723 -1.326304,1.94347 -0.396658,0.67107 -0.739461,1.38022 -1.054455,2.08779 l -7.577998,16.98142 c -0.314935,0.70746 -0.576137,1.42358 -0.809442,2.16768 -0.233198,0.7437 -0.414223,1.4986 -0.566542,2.2784 -0.152356,0.7799 -0.281941,1.5719 -0.354909,2.3873 -0.07296,0.8152 -0.115984,1.6487 -0.112081,2.4984 0.0039,0.8496 0.05293,1.7265 0.13084,2.6091 0.0779,0.8825 0.196581,1.7732 0.344653,2.687 -0.778067,0.5014 -1.531891,1.0339 -2.239722,1.5663 -0.707895,0.5326 -1.360792,1.0807 -1.994706,1.6461 -0.633917,0.5654 -1.2551,1.1218 -1.811999,1.7216 -0.556913,0.5998 -1.062582,1.2307 -1.54014,1.8658 -0.477599,0.6352 -0.929619,1.2723 -1.326271,1.9434 -0.396742,0.6712 -0.739492,1.3802 -1.05447,2.0878 l -7.065288,15.9209 c 0.176277,-0.3453 0.374566,-0.6895 0.572869,-1.025 0.396638,-0.6711 0.848719,-1.3083 1.326317,-1.9435 0.477569,-0.635 0.983201,-1.2658 1.540151,-1.8658 0.556928,-0.5997 1.14687,-1.1581 1.780823,-1.7237 0.633914,-0.5654 1.320139,-1.1425 2.028069,-1.6752 0.707845,-0.5325 1.45942,-1.0337 2.237524,-1.5351 0.778039,-0.5014 1.57642,-0.9877 2.420183,-1.4597 0.843821,-0.4722 1.729731,-0.937 2.634132,-1.3823 0.904292,-0.4449 1.824063,-0.857 2.783416,-1.2776 0.959226,-0.4207 1.960164,-0.8344 2.968259,-1.2335 1.007955,-0.3987 2.038479,-0.7821 3.088581,-1.1623 1.05005,-0.3801 2.094877,-0.76 3.179957,-1.1246 1.085038,-0.3647 2.189866,-0.7325 3.302462,-1.0848 1.112621,-0.3524 2.230118,-0.7057 3.362618,-1.0493 1.132487,-0.3434 2.278314,-0.6754 3.422822,-1.0137 1.144456,-0.3382 2.30542,-0.6749 3.453949,-1.0115 1.148536,-0.3364 2.3095,-0.6734 3.453997,-1.0115 1.144466,-0.3382 2.290262,-0.6701 3.42282,-1.0138 1.132449,-0.3433 2.249958,-0.6968 3.362621,-1.0491 1.112641,-0.3524 2.217352,-0.7202 3.302461,-1.0848 1.085068,-0.3647 2.127636,-0.7133 3.177768,-1.0937 1.05008,-0.3801 2.082705,-0.7946 3.090771,-1.1935 1.008065,-0.3989 2.006722,-0.7815 2.966125,-1.2022 0.959316,-0.4206 1.881207,-0.8639 2.785551,-1.3088 0.904541,-0.4453 1.790194,-0.9101 2.634077,-1.3822 0.843767,-0.4721 1.642179,-0.9583 2.42022,-1.4597 0.778145,-0.5013 1.529639,-1.0025 2.237543,-1.5352 0.708012,-0.5325 1.391816,-1.0784 2.025862,-1.6439 0.634043,-0.5655 1.225987,-1.1551 1.783007,-1.7549 0.557018,-0.5998 1.062539,-1.2307 1.54016,-1.86584 0.477734,-0.63511 0.929531,-1.27229 1.326289,-1.94346 0.39676,-0.67115 0.739356,-1.38025 1.05446,-2.08778 l 7.578032,-16.98151 c 0.315104,-0.70752 0.576082,-1.42365 0.809417,-2.16756 0.233345,-0.74392 0.414206,-1.49861 0.566576,-2.27854 0.15293,-0.77988 0.28158,-1.57206 0.3549,-2.3873 0.0733,-0.81523 0.11551,-1.64875 0.11205,-2.49826 -0.004,-0.84955 -0.053,-1.72676 -0.13082,-2.60924 -0.0779,-0.88246 -0.19661,-1.77313 -0.34466,-2.68684 0.77815,-0.50136 1.53181,-1.03374 2.23971,-1.56633 0.70802,-0.5326 1.36065,-1.0806 1.99469,-1.64612 0.63404,-0.5655 1.25498,-1.12173 1.812,-1.72153 0.55701,-0.59981 1.06254,-1.23075 1.54016,-1.86587 0.47772,-0.63513 0.92952,-1.27232 1.3263,-1.94347 0.39675,-0.67114 0.73936,-1.38025 1.05446,-2.08778 l 7.06529,-15.92094 z"
       id="path5130" />
    <path
       sodipodi:nodetypes="csssssssscssssssssssssssssssscsccccscssccsssccscssssssssssssssssc"
       inkscape:connector-curvature="0"
       id="path5132"
       d="m 100.29554,963.82958 c 0.14805,0.91372 0.27059,1.81594 0.34851,2.69841 0.0778,0.88247 0.11225,1.74549 0.11619,2.59504 0.003,0.84952 -0.0257,1.68384 -0.0991,2.49909 -0.0733,0.81522 -0.19515,1.60842 -0.34809,2.38831 -0.15236,0.77993 -0.330235,1.54844 -0.563575,2.29235 -0.233341,0.74391 -0.513872,1.46667 -0.828983,2.1742 -0.31499,0.70754 -0.66431,1.3997 -1.061063,2.07087 -0.39676,0.67115 -0.848741,1.3176 -1.326361,1.95272 -0.477737,0.63513 -0.984941,1.25697 -1.541955,1.85675 -0.557009,0.5997 -1.156719,1.18049 -1.790762,1.74602 -0.634032,0.5654 -1.298343,1.11743 -2.006242,1.65001 -0.708011,0.53249 -1.460297,1.04533 -2.238447,1.54668 -0.778139,0.50124 -1.593671,0.98596 -2.437436,1.45806 -0.843761,0.47201 -1.715424,0.93174 -2.619836,1.37686 -0.904406,0.44502 -1.842812,0.875 -2.802231,1.29566 -0.959292,0.42056 -1.943443,0.83021 -2.951537,1.2292 -1.007964,0.39887 -2.033933,0.78989 -3.084073,1.17015 -1.050084,0.38014 -2.115095,0.75377 -3.200211,1.11845 -1.085045,0.36456 -2.187036,0.72174 -3.299697,1.07415 -1.112607,0.35232 -2.2335,0.70107 -3.366039,1.04466 -1.13248,0.34345 -2.271241,0.68425 -3.415774,1.02248 -1.144478,0.3381 -2.300406,0.6713 -3.448933,1.0077 -1.148496,0.3363 -2.304407,0.6695 -3.44895,1.0077 -1.144469,0.3382 -2.283256,0.6789 -3.415795,1.0227 -1.132438,0.3432 -2.253345,0.692 -3.366008,1.0444 -1.112613,0.3525 -2.214628,0.7095 -3.299706,1.0742 -1.08505,0.3647 -2.150096,0.7382 -3.200198,1.1184 -1.050052,0.3801 -2.07607,0.7712 -3.084143,1.1702 -1.007976,0.3988 -1.992162,0.8084 -2.951439,1.2292 -0.959343,0.4207 -1.897867,0.8505 -2.802257,1.2957 -0.904325,0.445 -1.776027,0.9047 -2.6198,1.3768 -0.843781,0.4721 -1.659389,0.9567 -2.437427,1.4581 -0.148118,-0.9137 -0.27049,-1.8159 -0.348445,-2.6983 -0.07792,-0.8827 -0.112278,-1.7455 -0.11626,-2.595 -0.0039,-0.8497 0.02636,-1.684 0.09931,-2.4993 0.07297,-0.8153 0.195711,-1.6083 0.348037,-2.3881 0.152367,-0.78 0.330416,-1.5487 0.563613,-2.2924 0.233306,-0.74406 0.514047,-1.46687 0.828982,-2.17432 0.314972,-0.70757 0.664415,-1.3998 1.061079,-2.07087 0.396685,-0.67119 0.848817,-1.31756 1.326406,-1.95272 0.4776,-0.63516 0.985085,-1.25702 1.541979,-1.85675 0.556942,-0.59985 1.156807,-1.18057 1.790716,-1.74601 0.633948,-0.56552 1.298412,-1.11749 2.006264,-1.65002 0.7079,-0.53262 1.460412,-1.04537 2.23843,-1.54667 0.77807,-0.50139 1.593708,-0.98606 2.437431,-1.45808 0.843767,-0.47214 1.715509,-0.93183 2.619822,-1.37685 0.904383,-0.44517 1.842928,-0.87497 2.802243,-1.29566 0.9593,-0.42069 1.943472,-0.83031 2.951462,-1.2292 1.008045,-0.39898 2.034082,-0.78997 3.084134,-1.17013 1.050107,-0.3803 2.115185,-0.75389 3.200212,-1.11847 1.085083,-0.3647 2.187113,-0.72184 3.299694,-1.07415 1.112639,-0.35244 2.233566,-0.70117 3.366039,-1.04464 1.132516,-0.34357 2.271297,-0.68435 3.415776,-1.02248 1.144518,-0.33823 2.300444,-0.67137 3.448934,-1.00772 1.148536,-0.33644 2.304467,-0.6696 3.448944,-1.00771 1.144528,-0.33822 2.283299,-0.679 3.415771,-1.02247 1.132541,-0.34357 2.253444,-0.69232 3.36611,-1.04464 1.112555,-0.35244 2.214612,-0.70959 3.299604,-1.07418 1.085114,-0.36466 2.150125,-0.73829 3.20022,-1.11843 1.05022,-0.38026 2.076155,-0.77127 3.084122,-1.17014 1.00809,-0.39899 1.99224,-0.80863 2.951534,-1.2292 0.959302,-0.42068 1.897819,-0.85053 2.802231,-1.29566 0.904417,-0.44514 1.775956,-0.90475 2.619835,-1.37685 0.843765,-0.47211 1.659289,-0.95672 2.437449,-1.45807 z"
       style="fill:#752d2d;fill-opacity:1;stroke:none" />
  </g>
</svg>
